#define cursor_zoomout_mask_width 32
#define cursor_zoomout_mask_height 32
#define cursor_zoomout_mask_x_hot 8
#define cursor_zoomout_mask_y_hot 8
static unsigned char cursor_zoomout_mask_bits[] = {
   0xc0, 0x03, 0x00, 0x00, 0xf0, 0x0f, 0x00, 0x00, 0xf8, 0x1f, 0x00, 0x00,
   0xfc, 0x3f, 0x00, 0x00, 0xfe, 0x7f, 0x00, 0x00, 0xfe, 0x7f, 0x00, 0x00,
   0xff, 0xff, 0x00, 0x00, 0xff, 0xff, 0x00, 0x00, 0xff, 0xff, 0x00, 0x00,
   0xff, 0xff, 0x00, 0x00, 0xfe, 0x7f, 0x00, 0x00, 0xfe, 0x7f, 0x00, 0x00,
   0xfc, 0x3f, 0x00, 0x00, 0xf8, 0x7f, 0x00, 0x00, 0xf0, 0xff, 0x00, 0x00,
   0xc0, 0xf3, 0x01, 0x00, 0x00, 0xe0, 0x03, 0x00, 0x00, 0xc0, 0x07, 0x00,
   0x00, 0x80, 0x0f, 0x00, 0x00, 0x00, 0x1f, 0x00, 0x00, 0x00, 0x3e, 0x00,
   0x00, 0x00, 0x3c, 0x00, 0x00, 0x00, 0x38, 0x00, 0x00, 0x00, 0x00, 0x00,
   0x00, 0x00, 0x00, 0x00, 0x00, 0x00, 0x00, 0x00, 0x00, 0x00, 0x00, 0x00,
   0x00, 0x00, 0x00, 0x00, 0x00, 0x00, 0x00, 0x00, 0x00, 0x00, 0x00, 0x00,
   0x00, 0x00, 0x00, 0x00, 0x00, 0x00, 0x00, 0x00};
