#define cursor_zoomin_width 32
#define cursor_zoomin_height 32
#define cursor_zoomin_x_hot 8
#define cursor_zoomin_y_hot 8
static unsigned char cursor_zoomin_bits[] = {
   0x00, 0x00, 0x00, 0x00, 0x00, 0x00, 0x00, 0x00, 0xe0, 0x03, 0x00, 0x00,
   0x30, 0x0c, 0x00, 0x00, 0x08, 0x10, 0x00, 0x00, 0x88, 0x31, 0x00, 0x00,
   0x84, 0x21, 0x00, 0x00, 0xe4, 0x27, 0x00, 0x00, 0xe4, 0x27, 0x00, 0x00,
   0x84, 0x21, 0x00, 0x00, 0x8c, 0x11, 0x00, 0x00, 0x08, 0x10, 0x00, 0x00,
   0x30, 0x0c, 0x00, 0x00, 0xe0, 0x37, 0x00, 0x00, 0x00, 0x70, 0x00, 0x00,
   0x00, 0xe0, 0x00, 0x00, 0x00, 0xc0, 0x01, 0x00, 0x00, 0x80, 0x03, 0x00,
   0x00, 0x00, 0x07, 0x00, 0x00, 0x00, 0x0e, 0x00, 0x00, 0x00, 0x1c, 0x00,
   0x00, 0x00, 0x18, 0x00, 0x00, 0x00, 0x00, 0x00, 0x00, 0x00, 0x00, 0x00,
   0x00, 0x00, 0x00, 0x00, 0x00, 0x00, 0x00, 0x00, 0x00, 0x00, 0x00, 0x00,
   0x00, 0x00, 0x00, 0x00, 0x00, 0x00, 0x00, 0x00, 0x00, 0x00, 0x00, 0x00,
   0x00, 0x00, 0x00, 0x00, 0x00, 0x00, 0x00, 0x00};
