/* XPM */
static char *ellipse_xpm[]={
"24 24 3 1",
". c None",
"# c #000000",
"a c #ede5cf",
"........................",
"........................",
"........................",
".........######.........",
".......##########.......",
"......###aaaaaa###......",
".....##aaaaaaaaa###.....",
"....###aaaaaaaaaaa##....",
"....##aaaaaaaaaaaa##....",
"...##aaaaaaaaaaaaaa##...",
"...##aaaaaaaaaaaaaa##...",
"...##aaaaaaaaaaaaaa##...",
"...##aaaaaaaaaaaaaa##...",
"...##aaaaaaaaaaaaaa##...",
"...##aaaaaaaaaaaaaa##...",
"....##aaaaaaaaaaaa##....",
"....##aaaaaaaaaaa###....",
".....###aaaaaaaaa##.....",
"......###aaaaaa###......",
".......##########.......",
".........######.........",
"........................",
"........................",
"........................"};
