/* XPM */
static char *image_xpm[]={
"24 24 15 1",
". c None",
"# c #000000",
"i c #004000",
"f c #008000",
"e c #00c000",
"d c #00ff00",
"k c #404000",
"a c #58a8ff",
"h c #a0a0a0",
"g c #a8dcff",
"j c #c0ffff",
"l c #ff0000",
"b c #ffff00",
"c c #ffffc0",
"m c #ffffff",
"........................",
"........................",
"..####################..",
"..#aaaaaaaaaaaaaaaaaa#..",
"..#aaaaaaaaaaaabbaaaa#..",
"..#aaaaaa#aaaabbbbaaa#..",
"..#aaaaa#c#aaaabbaaaa#..",
"..#aaaa#ccc#aaaaaadef#..",
"..#aga#cchcc#agagdeei#..",
"..#ga##cchcc##agaeefi#..",
"..#ggg#ccccc#gggggfii#..",
"..#jjj#ccccc#jjjjjjij#..",
"..#####chchc#######k##..",
"..#eee#chchc#eeeeeeke#..",
"..#eee#chccc#eeelelke#..",
"..#ffe#chccc#eleieike#..",
"..#eee#######eeieilei#..",
"..#feeeemeeeeeieeeeie#..",
"..#eeeeemmmmmmmmmeeee#..",
"..#eeeeeeeeeeeeemmeee#..",
"..#eeeeeeeeeeeeeemeee#..",
"..####################..",
"........................",
"........................"};
