/* XPM */
static char *merge_xpm[]={
"24 24 7 1",
". c None",
"# c #000000",
"c c #585858",
"d c #a0a0a0",
"a c #c0c000",
"b c #ffffc0",
"e c #ffffff",
"........................",
"........................",
"....##########..........",
"...##abbbbbbb#c.........",
"..#d#dbbbbbbb#c.........",
".####acdbcbcb#c.........",
".#adadbbbbbbe#c.........",
".#bccbcbcdecb#c.........",
".#bbbbbebebbe#c.........",
".#bcb##############.....",
".#bbb#eeeeeeeeeeee#.....",
".#bcd#e##############...",
".#bbb#e#eeeeeeeeeeee#...",
".#bcb#e#e##############.",
".#bbb#e#e#eeeeeeeeeeee#.",
".#bcb###e#eeeeeeeeeeee#.",
".#bbebb#e#eeeeeeeeeeee#.",
".#bccbb###eeeeeeeeeeee#.",
".#bbbebeb#eeeeeeeeeeee#.",
".#bcbbcce##############.",
".#ebebebebeee#c.........",
".#############c.........",
"..ccccccccccccc.........",
"........................"};
