/* XPM */
static char *zoomin_xpm[]={
"24 24 11 1",
". c None",
"# c #000000",
"c c #0058c0",
"e c #00ff00",
"i c #404000",
"g c #58a8ff",
"f c #a8dcff",
"h c #c0c000",
"a c #c0ffff",
"b c #ffffc0",
"d c #ffffff",
"........................",
"........................",
"........................",
".......######...........",
"......##aaaaa##.........",
".....#aaaaaaaa##........",
"....##aab###aaac#.......",
"....#aabd#e#aafa##......",
"...#aaddd#e#faffa#......",
"...#aa####e####ga#......",
"...#ad#eeeeeee#ga#......",
"...#ad####e####ga#......",
"...#aaaff#e#fffga#......",
"...##aaaf#e#fgga#.......",
"....#aaff###ggaa#.......",
".....##afggggaa####.....",
"......##aaaaa##.#hb#....",
"........######..#ihb#...",
"................d#ihb#..",
".................d#ihb#.",
"..................d#ihb.",
"...................d#i..",
"....................d...",
"........................"};
