/* XPM */
static char *zoomout_xpm[]={
"24 24 10 1",
". c None",
"# c #000000",
"f c #00ff00",
"h c #404000",
"e c #58a8ff",
"c c #a8dcff",
"g c #c0c000",
"a c #c0ffff",
"b c #ffffc0",
"d c #ffffff",
"........................",
"........................",
"........................",
".......######...........",
"......##aaaaa##.........",
".....#aaaaaaaa##........",
"....##aabbacaaaa#.......",
"....#aabdcacaaca##......",
"...#aadddccccacca#......",
"...#aa#########ea#......",
"...#ad#fffffff#ea#......",
"...#ad#########ea#......",
"...#aaaccccccccea#......",
"...##aaaccccceea#.......",
"....#aaccccceeaa#.......",
".....##aceeeeaa####.....",
"......##aaaaa##.#gb#....",
"........######..#hgb#...",
"................d#hgb#..",
".................d#hgb#.",
"..................d#hgb.",
"...................d#h..",
"....................d...",
"........................"};
