/* XPM */
static char *zoom1to1_xpm[]={
"24 24 3 1",
". c None",
"# c #000000",
"a c #00ff00",
"........................",
"........................",
"........................",
"........................",
"......###.......###.....",
".....#aa#......#aa#.....",
".....#aa#......#aa#.....",
".....##a#......##a#.....",
"......#a#.......#a#.....",
"......#a#..###..#a#.....",
"......#a#..#a#..#a#.....",
"......#a#..#a#..#a#.....",
"......#a#..###..#a#.....",
"......#a#.......#a#.....",
"......#a#.......#a#.....",
"......#a#.......#a#.....",
"......#a#..###..#a#.....",
"......#a#..#a#..#a#.....",
"......#a#..#a#..#a#.....",
"......###..###..###.....",
"........................",
"........................",
"........................",
"........................"};
