#define cursor_ellipse_mask_width 32
#define cursor_ellipse_mask_height 32
#define cursor_ellipse_mask_x_hot 7
#define cursor_ellipse_mask_y_hot 7
static unsigned char cursor_ellipse_mask_bits[] = {
   0xc0, 0x01, 0x00, 0x00, 0xc0, 0x01, 0x00, 0x00, 0xc0, 0x01, 0x00, 0x00,
   0xc0, 0x01, 0x00, 0x00, 0xc0, 0x01, 0x00, 0x00, 0xc0, 0x01, 0x00, 0x00,
   0xff, 0x7f, 0x00, 0x00, 0xff, 0x7f, 0x00, 0x00, 0xff, 0x7f, 0x00, 0x00,
   0xc0, 0x01, 0x00, 0x00, 0xc0, 0x01, 0x00, 0x00, 0xc0, 0x01, 0xfe, 0x00,
   0xc0, 0x81, 0xff, 0x03, 0xc0, 0xc1, 0xff, 0x07, 0xc0, 0xe1, 0xff, 0x0f,
   0x00, 0xf0, 0x83, 0x1f, 0x00, 0xf0, 0x01, 0x1f, 0x00, 0xf8, 0x00, 0x3e,
   0x00, 0x78, 0x00, 0x3c, 0x00, 0x78, 0x00, 0x3c, 0x00, 0x78, 0x00, 0x3c,
   0x00, 0x78, 0x00, 0x3c, 0x00, 0x78, 0x00, 0x3c, 0x00, 0xf8, 0x00, 0x3e,
   0x00, 0xf0, 0x01, 0x1f, 0x00, 0xf0, 0x83, 0x1f, 0x00, 0xe0, 0xff, 0x0f,
   0x00, 0xc0, 0xff, 0x07, 0x00, 0x80, 0xff, 0x03, 0x00, 0x00, 0xfe, 0x00,
   0x00, 0x00, 0x00, 0x00, 0x00, 0x00, 0x00, 0x00};
