#define cursor_text_mask_width 32
#define cursor_text_mask_height 32
#define cursor_text_mask_x_hot 7
#define cursor_text_mask_y_hot 7
static unsigned char cursor_text_mask_bits[] = {
   0xc0, 0x01, 0x00, 0x00, 0xc0, 0x01, 0x00, 0x00, 0xc0, 0x01, 0x00, 0x00,
   0xc0, 0x01, 0x00, 0x00, 0xc0, 0x01, 0x00, 0x00, 0xc0, 0x01, 0x00, 0x00,
   0xff, 0x7f, 0x00, 0x00, 0xff, 0x7f, 0x00, 0x00, 0xff, 0x7f, 0x00, 0x00,
   0xc0, 0x01, 0x00, 0x00, 0xc0, 0x01, 0x00, 0x00, 0xc0, 0x01, 0x00, 0x00,
   0xc0, 0x01, 0x00, 0x00, 0xc0, 0xe1, 0xff, 0x03, 0xc0, 0xe1, 0xff, 0x03,
   0x00, 0xe0, 0xff, 0x03, 0x00, 0xe0, 0xbe, 0x03, 0x00, 0x60, 0x3e, 0x03,
   0x00, 0x00, 0x3e, 0x00, 0x00, 0x00, 0x3e, 0x00, 0x00, 0x00, 0x3e, 0x00,
   0x00, 0x00, 0x3e, 0x00, 0x00, 0x00, 0x3e, 0x00, 0x00, 0x00, 0x3e, 0x00,
   0x00, 0x00, 0x3e, 0x00, 0x00, 0x00, 0x7f, 0x00, 0x00, 0x00, 0x7f, 0x00,
   0x00, 0x00, 0x7f, 0x00, 0x00, 0x00, 0x00, 0x00, 0x00, 0x00, 0x00, 0x00,
   0x00, 0x00, 0x00, 0x00, 0x00, 0x00, 0x00, 0x00};
