#define cursor_box_mask_width 32
#define cursor_box_mask_height 32
#define cursor_box_mask_x_hot 7
#define cursor_box_mask_y_hot 7
static unsigned char cursor_box_mask_bits[] = {
   0xc0, 0x01, 0x00, 0x00, 0xc0, 0x01, 0x00, 0x00, 0xc0, 0x01, 0x00, 0x00,
   0xc0, 0x01, 0x00, 0x00, 0xc0, 0x01, 0x00, 0x00, 0xc0, 0x01, 0x00, 0x00,
   0xff, 0x7f, 0x00, 0x00, 0xff, 0x7f, 0x00, 0x00, 0xff, 0x7f, 0x00, 0x00,
   0xc0, 0x01, 0x00, 0x00, 0xc0, 0x01, 0x00, 0x00, 0xc0, 0x01, 0x00, 0x00,
   0xc0, 0x01, 0x00, 0x00, 0xc0, 0x01, 0x00, 0x00, 0xc0, 0xc1, 0xff, 0xff,
   0x00, 0xc0, 0xff, 0xff, 0x00, 0xc0, 0xff, 0xff, 0x00, 0xc0, 0xff, 0xff,
   0x00, 0xc0, 0x03, 0xf0, 0x00, 0xc0, 0x03, 0xf0, 0x00, 0xc0, 0x03, 0xf0,
   0x00, 0xc0, 0x03, 0xf0, 0x00, 0xc0, 0x03, 0xf0, 0x00, 0xc0, 0x03, 0xf0,
   0x00, 0xc0, 0x03, 0xf0, 0x00, 0xc0, 0x03, 0xf0, 0x00, 0xc0, 0x03, 0xf0,
   0x00, 0xc0, 0x03, 0xf0, 0x00, 0xc0, 0xff, 0xff, 0x00, 0xc0, 0xff, 0xff,
   0x00, 0xc0, 0xff, 0xff, 0x00, 0xc0, 0xff, 0xff};
