#define cursor_line_mask_width 32
#define cursor_line_mask_height 32
#define cursor_line_mask_x_hot 7
#define cursor_line_mask_y_hot 7
static unsigned char cursor_line_mask_bits[] = {
   0xc0, 0x01, 0x00, 0x00, 0xc0, 0x01, 0x00, 0x00, 0xc0, 0x01, 0x00, 0x00,
   0xc0, 0x01, 0x00, 0x00, 0xc0, 0x01, 0x00, 0x00, 0xc0, 0x01, 0x00, 0x00,
   0xff, 0x7f, 0x00, 0x00, 0xff, 0x7f, 0x00, 0x00, 0xff, 0x7f, 0x00, 0x00,
   0xc0, 0x01, 0x00, 0x00, 0xc0, 0x01, 0x00, 0x08, 0xc0, 0x01, 0x00, 0x1c,
   0xc0, 0x01, 0x00, 0x1e, 0xc0, 0x01, 0x00, 0x0f, 0xc0, 0x01, 0x80, 0x07,
   0x00, 0x00, 0xc0, 0x03, 0x00, 0x00, 0xe0, 0x01, 0x00, 0x00, 0xf0, 0x00,
   0x00, 0x00, 0x78, 0x00, 0x00, 0x00, 0x3c, 0x00, 0x00, 0x00, 0x1e, 0x00,
   0x00, 0x00, 0x0f, 0x00, 0x00, 0x80, 0x07, 0x00, 0x00, 0xc0, 0x03, 0x00,
   0x00, 0xe0, 0x01, 0x00, 0x00, 0xf0, 0x00, 0x00, 0x00, 0x78, 0x00, 0x00,
   0x00, 0x3c, 0x00, 0x00, 0x00, 0x18, 0x00, 0x00, 0x00, 0x00, 0x00, 0x00,
   0x00, 0x00, 0x00, 0x00, 0x00, 0x00, 0x00, 0x00};
