#define cursor_box_width 32
#define cursor_box_height 32
#define cursor_box_x_hot 7
#define cursor_box_y_hot 7
static unsigned char cursor_box_bits[] = {
   0x00, 0x00, 0x00, 0x00, 0x80, 0x00, 0x00, 0x00, 0x80, 0x00, 0x00, 0x00,
   0x80, 0x00, 0x00, 0x00, 0x80, 0x00, 0x00, 0x00, 0x80, 0x00, 0x00, 0x00,
   0x80, 0x00, 0x00, 0x00, 0xfe, 0x3f, 0x00, 0x00, 0x80, 0x00, 0x00, 0x00,
   0x80, 0x00, 0x00, 0x00, 0x80, 0x00, 0x00, 0x00, 0x80, 0x00, 0x00, 0x00,
   0x80, 0x00, 0x00, 0x00, 0x80, 0x00, 0x00, 0x00, 0x00, 0x00, 0x00, 0x00,
   0x00, 0x80, 0xff, 0x7f, 0x00, 0x80, 0xff, 0x7f, 0x00, 0x80, 0x01, 0x60,
   0x00, 0x80, 0x01, 0x60, 0x00, 0x80, 0x01, 0x60, 0x00, 0x80, 0x01, 0x60,
   0x00, 0x80, 0x01, 0x60, 0x00, 0x80, 0x01, 0x60, 0x00, 0x80, 0x01, 0x60,
   0x00, 0x80, 0x01, 0x60, 0x00, 0x80, 0x01, 0x60, 0x00, 0x80, 0x01, 0x60,
   0x00, 0x80, 0x01, 0x60, 0x00, 0x80, 0x01, 0x60, 0x00, 0x80, 0xff, 0x7f,
   0x00, 0x80, 0xff, 0x7f, 0x00, 0x00, 0x00, 0x00};
