/* XPM */
static char *nocollate_xpm[]={
"58 28 3 1",
". c None",
"# c #000000",
"a c #ffffff",
"..........................................................",
".###################..###################.................",
".#aaaaaaaaaaaaaaaaa#..#aaaaaaaaaaaaaaaaa#.................",
".#aaaaaaaa#aaaaaaaa#..#aaaaaaaa#aaaaaaaa#.................",
".#aaaaaaa##aaaaaaaa#..#aaaaaaa##aaaaaaaa#.................",
".#aaaaaaaa#aaaaaaaa#..#aaaaaaaa#aaaaaaaa#..##..##..##.....",
".#aaaaaaaa#aaaaaaaa#..#aaaaaaaa#aaaaaaaa#..##..##..##.....",
".#aaaaaaaa#aaaaaaaa#..#aaaaaaaa#aaaaaaaa#.................",
".#aaaaaaaa#aaaaaaaa#..#aaaaaaaa#aaaaaaaa#.................",
".#aaaaaaa###aaaaaaa#..#aaaaaaa###aaaaaaa#.................",
".#aaaaaaaaaaaaaaaaa#..#aaaaaaaaaaaaaaaaa#.................",
".###################..###################.................",
"..........................................................",
"..........................................................",
"..........................................................",
".................###################..###################.",
".................#aaaaaaaaaaaaaaaaa#..#aaaaaaaaaaaaaaaaa#.",
".................#aaaaaaaa##aaaaaaa#..#aaaaaaaa##aaaaaaa#.",
".................#aaaaaaa#aa#aaaaaa#..#aaaaaaa#aa#aaaaaa#.",
"....##..##..##...#aaaaaaaaaa#aaaaaa#..#aaaaaaaaaa#aaaaaa#.",
"....##..##..##...#aaaaaaaaa#aaaaaaa#..#aaaaaaaaa#aaaaaaa#.",
".................#aaaaaaaa#aaaaaaaa#..#aaaaaaaa#aaaaaaaa#.",
".................#aaaaaaa#aaaaaaaaa#..#aaaaaaa#aaaaaaaaa#.",
".................#aaaaaaa####aaaaaa#..#aaaaaaa####aaaaaa#.",
".................#aaaaaaaaaaaaaaaaa#..#aaaaaaaaaaaaaaaaa#.",
".................###################..###################.",
"..........................................................",
".........................................................."};
