/* XPM */
static char * checkerboard_xpm[] = {
"24 24 2 1",
" 	c #CCCCCC",
".	c #000000",
"..  ..  ..  ..  ..  ..  ",
"..  ..  ..  ..  ..  ..  ",
"  ..  ..  ..  ..  ..  ..",
"  ..  ..  ..  ..  ..  ..",
"..  ..  ..  ..  ..  ..  ",
"..  ..  ..  ..  ..  ..  ",
"  ..  ..  ..  ..  ..  ..",
"  ..  ..  ..  ..  ..  ..",
"..  ..  ..  ..  ..  ..  ",
"..  ..  ..  ..  ..  ..  ",
"  ..  ..  ..  ..  ..  ..",
"  ..  ..  ..  ..  ..  ..",
"..  ..  ..  ..  ..  ..  ",
"..  ..  ..  ..  ..  ..  ",
"  ..  ..  ..  ..  ..  ..",
"  ..  ..  ..  ..  ..  ..",
"..  ..  ..  ..  ..  ..  ",
"..  ..  ..  ..  ..  ..  ",
"  ..  ..  ..  ..  ..  ..",
"  ..  ..  ..  ..  ..  ..",
"..  ..  ..  ..  ..  ..  ",
"..  ..  ..  ..  ..  ..  ",
"  ..  ..  ..  ..  ..  ..",
"  ..  ..  ..  ..  ..  .."};
