/* XPM */
static char *collate_xpm[]={
"58 28 3 1",
". c None",
"# c #000000",
"a c #ffffff",
"..........................................................",
".###################..###################.................",
".#aaaaaaaaaaaaaaaaa#..#aaaaaaaaaaaaaaaaa#.................",
".#aaaaaaaa#aaaaaaaa#..#aaaaaaa##aaaaaaaa#.................",
".#aaaaaaa##aaaaaaaa#..#aaaaaa#aa#aaaaaaa#.................",
".#aaaaaaaa#aaaaaaaa#..#aaaaaaaaa#aaaaaaa#..##..##..##.....",
".#aaaaaaaa#aaaaaaaa#..#aaaaaaaa#aaaaaaaa#..##..##..##.....",
".#aaaaaaaa#aaaaaaaa#..#aaaaaaa#aaaaaaaaa#.................",
".#aaaaaaaa#aaaaaaaa#..#aaaaaa#aaaaaaaaaa#.................",
".#aaaaaaa###aaaaaaa#..#aaaaaa####aaaaaaa#.................",
".#aaaaaaaaaaaaaaaaa#..#aaaaaaaaaaaaaaaaa#.................",
".###################..###################.................",
"..........................................................",
"..........................................................",
"..........................................................",
".................###################..###################.",
".................#aaaaaaaaaaaaaaaaa#..#aaaaaaaaaaaaaaaaa#.",
".................#aaaaaaaa#aaaaaaaa#..#aaaaaaa##aaaaaaaa#.",
".................#aaaaaaa##aaaaaaaa#..#aaaaaa#aa#aaaaaaa#.",
"....##..##..##...#aaaaaaaa#aaaaaaaa#..#aaaaaaaaa#aaaaaaa#.",
"....##..##..##...#aaaaaaaa#aaaaaaaa#..#aaaaaaaa#aaaaaaaa#.",
".................#aaaaaaaa#aaaaaaaa#..#aaaaaaa#aaaaaaaaa#.",
".................#aaaaaaaa#aaaaaaaa#..#aaaaaa#aaaaaaaaaa#.",
".................#aaaaaaa###aaaaaaa#..#aaaaaa####aaaaaaa#.",
".................#aaaaaaaaaaaaaaaaa#..#aaaaaaaaaaaaaaaaa#.",
".................###################..###################.",
"..........................................................",
".........................................................."};
