#define cursor_line_width 32
#define cursor_line_height 32
#define cursor_line_x_hot 7
#define cursor_line_y_hot 7
static unsigned char cursor_line_bits[] = {
   0x00, 0x00, 0x00, 0x00, 0x80, 0x00, 0x00, 0x00, 0x80, 0x00, 0x00, 0x00,
   0x80, 0x00, 0x00, 0x00, 0x80, 0x00, 0x00, 0x00, 0x80, 0x00, 0x00, 0x00,
   0x80, 0x00, 0x00, 0x00, 0xfe, 0x3f, 0x00, 0x00, 0x80, 0x00, 0x00, 0x00,
   0x80, 0x00, 0x00, 0x00, 0x80, 0x00, 0x00, 0x00, 0x80, 0x00, 0x00, 0x08,
   0x80, 0x00, 0x00, 0x0c, 0x80, 0x00, 0x00, 0x06, 0x00, 0x00, 0x00, 0x03,
   0x00, 0x00, 0x80, 0x01, 0x00, 0x00, 0xc0, 0x00, 0x00, 0x00, 0x60, 0x00,
   0x00, 0x00, 0x30, 0x00, 0x00, 0x00, 0x18, 0x00, 0x00, 0x00, 0x0c, 0x00,
   0x00, 0x00, 0x06, 0x00, 0x00, 0x00, 0x03, 0x00, 0x00, 0x80, 0x01, 0x00,
   0x00, 0xc0, 0x00, 0x00, 0x00, 0x60, 0x00, 0x00, 0x00, 0x30, 0x00, 0x00,
   0x00, 0x18, 0x00, 0x00, 0x00, 0x00, 0x00, 0x00, 0x00, 0x00, 0x00, 0x00,
   0x00, 0x00, 0x00, 0x00, 0x00, 0x00, 0x00, 0x00};
