#define cursor_barcode_width 32
#define cursor_barcode_height 32
#define cursor_barcode_x_hot 7
#define cursor_barcode_y_hot 7
static unsigned char cursor_barcode_bits[] = {
   0x00, 0x00, 0x00, 0x00, 0x80, 0x00, 0x00, 0x00, 0x80, 0x00, 0x00, 0x00,
   0x80, 0x00, 0x00, 0x00, 0x80, 0x00, 0x00, 0x00, 0x80, 0x00, 0x00, 0x00,
   0x80, 0x00, 0x00, 0x00, 0xfe, 0x3f, 0x00, 0x00, 0x80, 0x00, 0x00, 0x00,
   0x80, 0x00, 0x00, 0x00, 0x80, 0x00, 0x00, 0x00, 0x80, 0x00, 0x00, 0x00,
   0x80, 0x00, 0x00, 0x00, 0x80, 0xa0, 0xad, 0x5a, 0x00, 0xa0, 0xad, 0x5a,
   0x00, 0xa0, 0xad, 0x5a, 0x00, 0xa0, 0xad, 0x5a, 0x00, 0xa0, 0xad, 0x5a,
   0x00, 0xa0, 0xad, 0x5a, 0x00, 0xa0, 0xad, 0x5a, 0x00, 0xa0, 0xad, 0x5a,
   0x00, 0xa0, 0xad, 0x5a, 0x00, 0xa0, 0xad, 0x5a, 0x00, 0xa0, 0xad, 0x5a,
   0x00, 0xa0, 0xad, 0x5a, 0x00, 0xa0, 0xad, 0x5a, 0x00, 0xa0, 0xad, 0x5a,
   0x00, 0xa0, 0xad, 0x5a, 0x00, 0x00, 0x00, 0x00, 0x00, 0x00, 0x00, 0x00,
   0x00, 0x00, 0x00, 0x00, 0x00, 0x00, 0x00, 0x00};
