#define cursor_image_mask_width 32
#define cursor_image_mask_height 32
#define cursor_image_mask_x_hot 7
#define cursor_image_mask_y_hot 7
static unsigned char cursor_image_mask_bits[] = {
   0xc0, 0x01, 0x00, 0x00, 0xc0, 0x01, 0x00, 0x00, 0xc0, 0x01, 0x00, 0x00,
   0xc0, 0x01, 0x00, 0x00, 0xc0, 0x01, 0x00, 0x00, 0xc0, 0x01, 0x00, 0x00,
   0xff, 0x7f, 0x00, 0x00, 0xff, 0x7f, 0x00, 0x00, 0xff, 0x7f, 0x00, 0x00,
   0xc0, 0x01, 0x00, 0x00, 0xc0, 0x01, 0x00, 0x00, 0xc0, 0xf9, 0xff, 0xff,
   0xc0, 0xf9, 0xff, 0xff, 0xc0, 0xf9, 0xff, 0xff, 0xc0, 0xf9, 0xff, 0xff,
   0x00, 0xf8, 0xff, 0xff, 0x00, 0xf8, 0xff, 0xff, 0x00, 0xf8, 0xff, 0xff,
   0x00, 0xf8, 0xff, 0xff, 0x00, 0xf8, 0xff, 0xff, 0x00, 0xf8, 0xff, 0xff,
   0x00, 0xf8, 0xff, 0xff, 0x00, 0xf8, 0xff, 0xff, 0x00, 0xf8, 0xff, 0xff,
   0x00, 0xf8, 0xff, 0xff, 0x00, 0xf8, 0xff, 0xff, 0x00, 0xf8, 0xff, 0xff,
   0x00, 0xf8, 0xff, 0xff, 0x00, 0xf8, 0xff, 0xff, 0x00, 0xf8, 0xff, 0xff,
   0x00, 0xf8, 0xff, 0xff, 0x00, 0xf8, 0xff, 0xff};
