#define cursor_ellipse_width 32
#define cursor_ellipse_height 32
#define cursor_ellipse_x_hot 7
#define cursor_ellipse_y_hot 7
static unsigned char cursor_ellipse_bits[] = {
   0x00, 0x00, 0x00, 0x00, 0x80, 0x00, 0x00, 0x00, 0x80, 0x00, 0x00, 0x00,
   0x80, 0x00, 0x00, 0x00, 0x80, 0x00, 0x00, 0x00, 0x80, 0x00, 0x00, 0x00,
   0x80, 0x00, 0x00, 0x00, 0xfe, 0x3f, 0x00, 0x00, 0x80, 0x00, 0x00, 0x00,
   0x80, 0x00, 0x00, 0x00, 0x80, 0x00, 0x00, 0x00, 0x80, 0x00, 0x00, 0x00,
   0x80, 0x00, 0x7c, 0x00, 0x80, 0x00, 0xef, 0x01, 0x00, 0x80, 0x01, 0x03,
   0x00, 0xc0, 0x00, 0x06, 0x00, 0x60, 0x00, 0x0c, 0x00, 0x20, 0x00, 0x08,
   0x00, 0x30, 0x00, 0x18, 0x00, 0x30, 0x00, 0x18, 0x00, 0x10, 0x00, 0x10,
   0x00, 0x30, 0x00, 0x18, 0x00, 0x30, 0x00, 0x18, 0x00, 0x20, 0x00, 0x08,
   0x00, 0x60, 0x00, 0x0c, 0x00, 0xc0, 0x00, 0x06, 0x00, 0x80, 0x01, 0x03,
   0x00, 0x00, 0xef, 0x01, 0x00, 0x00, 0x7c, 0x00, 0x00, 0x00, 0x00, 0x00,
   0x00, 0x00, 0x00, 0x00, 0x00, 0x00, 0x00, 0x00};
