#define cursor_image_width 32
#define cursor_image_height 32
#define cursor_image_x_hot 7
#define cursor_image_y_hot 7
static unsigned char cursor_image_bits[] = {
   0x00, 0x00, 0x00, 0x00, 0x80, 0x00, 0x00, 0x00, 0x80, 0x00, 0x00, 0x00,
   0x80, 0x00, 0x00, 0x00, 0x80, 0x00, 0x00, 0x00, 0x80, 0x00, 0x00, 0x00,
   0x80, 0x00, 0x00, 0x00, 0xfe, 0x3f, 0x00, 0x00, 0x80, 0x00, 0x00, 0x00,
   0x80, 0x00, 0x00, 0x00, 0x80, 0x00, 0x00, 0x00, 0x80, 0x00, 0x00, 0x00,
   0x80, 0xf0, 0xff, 0x7f, 0x80, 0x10, 0x00, 0x40, 0x00, 0x10, 0x00, 0x40,
   0x00, 0x10, 0x00, 0x4c, 0x00, 0x10, 0x00, 0x52, 0x00, 0x10, 0x08, 0x4c,
   0x00, 0x10, 0x14, 0x40, 0x00, 0x10, 0x22, 0x40, 0x00, 0x10, 0x41, 0x40,
   0x00, 0x90, 0xc1, 0x40, 0x00, 0x10, 0x41, 0x40, 0x00, 0xf0, 0xc1, 0x7f,
   0x00, 0x10, 0x41, 0x40, 0x00, 0x10, 0x41, 0x40, 0x00, 0x10, 0x41, 0x40,
   0x00, 0x10, 0x7f, 0x40, 0x00, 0x10, 0x00, 0x40, 0x00, 0x10, 0x00, 0x40,
   0x00, 0xf0, 0xff, 0x7f, 0x00, 0x00, 0x00, 0x00};
